<mxfile host="65bd71144e">
    <diagram id="87_cKgnMLXrbzZamIz2d" name="Page-1">
        <mxGraphModel dx="1086" dy="774" grid="1" gridSize="10" guides="1" tooltips="1" connect="1" arrows="1" fold="1" page="1" pageScale="1" pageWidth="850" pageHeight="1100" math="0" shadow="0">
            <root>
                <mxCell id="0"/>
                <mxCell id="1" parent="0"/>
                <mxCell id="2" value="http://ics2o.mths.ca" style="swimlane;whiteSpace=wrap;html=1;" vertex="1" parent="1">
                    <mxGeometry x="40" y="40" width="760" height="480" as="geometry"/>
                </mxCell>
                <mxCell id="3" value="Random Excuse API, in JS" style="whiteSpace=wrap;html=1;fontSize=20;" vertex="1" parent="2">
                    <mxGeometry y="23" width="760" height="60" as="geometry"/>
                </mxCell>
                <mxCell id="4" value="Click the button to get a random excuse." style="text;html=1;align=center;verticalAlign=middle;resizable=0;points=[];autosize=1;strokeColor=none;fillColor=none;fontSize=15;" vertex="1" parent="2">
                    <mxGeometry x="30" y="120" width="290" height="30" as="geometry"/>
                </mxCell>
                <mxCell id="5" value="Get Excuse" style="rounded=1;whiteSpace=wrap;html=1;" vertex="1" parent="2">
                    <mxGeometry x="35" y="170" width="120" height="40" as="geometry"/>
                </mxCell>
                <mxCell id="9" value="" style="shape=image;verticalLabelPosition=bottom;labelBackgroundColor=default;verticalAlign=top;aspect=fixed;imageAspect=0;image=data:image/png,iVBORw0KGgoAAAANSUhEUgAAARMAAAC3CAMAAAAGjUrGAAABYlBMVEU6uNENOFi0PmCUwSD5sjT///+OvgA2t9CzO14stc/5sTAAKU4AMFIFs86xMVeyN1sAJ00AM1T5rycALVCvKlP5riEAI0rivMaQvhAAiZ35///++fvftL////3Y6LcAlq2y4uytIk7t1dvCa4L58PLy9+X++fD+9OP7z4v4++8AnLQAgJXt+vzZprPVnayr4OvWnq3Je5C8WXTK7PPc8/f85sT6w2n97NPoytL5ulCgx0H82KBjxdn5tz7o8tL72qjj5ulneo0AG0aeqrbEy9Lw3OHNi5zNh5qW2OW4Smq11dzFcYjT5azkoy5yy93u5NK61n3g7MTBjCi203T70I1lrLmmy0vH3Zeuz2KBuMOaxc6yu8R9jZ2QnapGX3ba3+QAE0ExTmhPZ33Hs5X5x3exfQnl1brLqG+wXXPNlCrEnFejQVzPsbi4jZeaG0PWu469jzrPsHxPlKDGvbFNqboAADrAuG9cAAAVv0lEQVR4nO2di18iV7LHRS2aBgEBUewGUUDw0erIG1REBAfREB0fKIiMrpNscvfuZueS//9WdQPyaEDNRLTxlxmDiPOxv9br1KnTjIx86EMf+tCHPjSMYtiGGGbQP8wbEPIY2c5n5wOojWw2T08MNRe8/u35oABN4oTgxvbQYmHYkXyAQwyezMzawebR0ebB2owrwxOYQH6EHfTP9/pi2O0NNBDete42Tk0ZjCSDwTA1NXq05kIuQnbYqKCNzKOJZA4ODQajZrRJGg2iOTzIEJWh8iCMImgidv9CK49HMMYFfxSpbA+NqbDMBgf82uGUPJAaloUjtJXskEBh8xhH7IeGXkRIRuMngHn9oH/cVxDLBABcvW2kbipTbh4CyrcUMhLPwVOIkAx+D8wrHArDbgBER/u6zaP/+JUeU9iRAPAHC08mQpbiBlDyGojdRr/xG55BBDW1BkHlxlk2z4FLY3weklGNIQPXSvUeNosZ+Fl+I8noBmFl0D/83yNCst433xg0mo7XLLjgQpGGQkg+TzVfvd3T6UYaz6Hb5W+DYtyEoBINhZBsNiMZNczwFG3F+GLU4H+4NNZoMsYjcLexoojiVF7qYfOIpDXhSEwM/qNR4+im/+DwaO1okyrXGZhpNxSDHYqKMxR2G+BgarSTifEAeI8xk/GA/xM1lzTGIxe43DLO4xz0NfxgMdschtdRGSaG6NrCph8wtSCT0SnerTF0+s6oZtQjKM15mCDYO7JJjcn6wqEfNBITg8etQZs46oi9Uxn4rqzMwwYg05mEDTNgxA+eNX6Tt8/AATHhuzGJwoWiAgqmHM9oZ11i/LyG125cm/k85bavHay57fiJX6Px29tDLPJbg+v3y6TT6ymYdP7mCYqYhwwGIz4yYCY2UE6mzNvJz7AOxXcYZKWtvPqDJjToOfb2+PpcoUPlZgd2aS8TbV1l54OctGslBLL5EbYWE7Ey8Ty1g9SdydF7Y0I7NUGC4VhcTCQWl2tcJCqMAJvPXQq/eyZIJIAQlo/PLuM2tVptG4tfFRKEZQOpYICN/lXPeXe+w26jiSwX4gjDNibJZkM2Z4iFy7IM17l8eb7ZYLn7fpiI/dXlE5t6rF029eUpQLDTTIyfXM82HMzFuYvtRox602JG0EgKDQNpp3K1iC7UbiYGu2fBSNZCgVf8iw81GtF8jPSksdOOcBFYSQMXzDO1GZXarMqgr19G1ExMxDtt5JFKAWCmbfsTmfjdRuPhkR8v/tCoMfoP3YeHbs3h0eHo53V80u3uqPCmXPCPf0S8SHijnt2EwEb+DRoONQCOuxhJTeqrZYi2QsHf+UzGfsRn4MDt4TPGGU8GNj/zhs+wGeXtLqOL92Ta2tgag8fx5Ser9iEkZjevz+fzgjSR8cZa+oSk0N1IaqYSXwRXSxMWmSz4XTMZf9Rlj45+8vNut8gE1zkZ/mDKD5tH0Fbda/zg/fbTuFZrDe8uhXfGtWbteCx8HnKgueTfkgdRT+SkHxKEMraIYVbTzIQnJh67/WBmDSML7/cTk4VN2Fw4yMARzNhpLxlDSyOuGA7gl2/jJK3ZrNVq6YFWa7ZaHyIAAZn1xIDEjAj9rUSylGVYNzQzgWhmZs3jtkfXMpuZz55P6/DJDXb0IPsmOhCsb3r86+7Pm/71OhRDFH79Mi4jNBwvCG8Gij4Ip09BglAuAf75mEuMB9Fo9HDU7oq6R2dcduNmNLoWnfqEjuRez2TWDZsu19rUzOba+tFMjaRmlIdvv8kxGR83ayMQfCNMsD5dfBoSDLQF8Pz70XtoQkujMUwZjPRB/NQwio+mjDTDNSp+oHWysW5cuCr+BcOJvLTWCGy8iQlSZoSDy54ZpwVKAtaeuSPaHGGnPPC7rOtIUGIYaKmeG3ReZudh7qlmInoP/z8vXhtjhP3522/arlCsPnGCdD472HKFwZxTs5Ju9Yn4fP2L6mP410sNRXPIw+/fKP+axcQjJp0WQznfDUW8mJcBy5XBUcFVzrG6FisSslBsiRPbmHruuG5MLzYUDSadX779Zn7wxiJYmTz4MK6eR1qgYFK2WmNLIazjgvmBQWE5R7xmAXMO6bJt4p+xuvWolwtqmzpRT03qU/jfl3VRpg7A++XLuHkJYl4MqEuAprLltWrFEqXZWszW8QcflSuDoYIVbONiRSaXl2MYca8u1fGruDp+aYtfEZOry0Q96NiuIPPvlyAxHAH8ikkHmexYzbHwlsQkHB7HT2Lm1mhrtj54gRvM/CgbgBNbExP13PIYjJ3A8Qksw8ncIoaPseVCwZFoCsSL8BLnwYof/kMBlphghsG4QUwgFAmFHT5YaoWCbjQeAm4g/sMIddeRmNjicOUoJGAMfeU0cZyQmCRO1IsNJvjU851Hs3BASL6gjxAT85LPKtmJwxqLhCKxSMTaWa7soqW8frWCWSehbmaCBYgDHPgk+spxG5N6gDmDfz3XeQyjMyIS0QBEJhHr+SMT3+7uebudUGreBeH1DQXDyXErE9sJJBZxRXi6eLZ4WoDCMjE5TRRgLl6w1UuU5lr2CTIuHHjA+6uEBHMNMgnDlg/qvrPrC4dCHXZCUKiwfXUmG1Bo9F4Lc+LD06uT07Gx+FziND52fHqcGJs7Gzs9nStcLtej7DL/z4WnNh2x9F/4nAH4+Y/6Okf7ENlBGJHdED0OhUKx8V2MKXKVHBW2r42EQuxVoyiptWLVNvGBWq0WP2DctYn/vzyrB+NFqLRV+BpqOXbyoF1Bv90DopH8VL9qrbVWiYiPrVat+EEGCRpKCLKvHVHYINRDbH/V4WGFUoJMs6Fo/IeHSMBIZ3YaMhgP3QdRNBH4+b/f0Ei6l/TdpQ2//uw1E4QnI2lIPQffk/yhpgkJj/JIymRcrmg06sp4PHTMC3y//PGtW3ugP5MdCL4XJtUAHDw6Dy7thKAgcKIapwEdXu/Pv/z3yzf0mhcSQZlfP6CwL2WSh2gTkyhcrM6Kcl6k/+/3X0m//4E4vv32208vcpomJgOIJ+29E3VT40B+oaxOQJWFJucxZmDWWdupySf/81NDZP1NjoAlSJdY2g3bIHwH885Z64WrjwuPT5zIBmDMO0594LEzqxnlhdX67MFGZ5Vev77Y+Y458iB7+eH2rkHdTJZev0Bhs1BoY5JoFLZYnJ3JWoqXc7Lb4FlohFgINpjMg/xVi7VazCpLTBtzxHAdKPN9Vh/kX9138u1NNmoK1PtHV3AiQwQXxsFZis71wQtxVIDpx0S7swUPZvxjpV4A+pDWah6n2oS+iItCh6+zkjU/DGDsmtnmFtuZQGL56hRXgI4TXPmcdBoKVv9FJ9GsT/sZPkGxPiqAhrcl7zvmc/znYpiPvDtL+EHr8/ogFgLAoh7L1VgYOkONdsc7iPF8VnC0BlnynbO5uTlc/YzhGlmmU4slG00uMgJ8liIKje3VR9RwUSm7ciE/WCLf2dJ6z727O96tiGMrHAb8E9MSEx/4dtqgaM0RyA1gHhBtvXW7q5kJxRNbve3WFE5glpUmuaTtY4MdLhpjeywH7ddWNxSRyZI1cu6NhEIPkYgVV4K43NkRmTwQG8w/j6HWPB4ZzMx1c7OgxsRRSBwfL58tS0zOxq4uL6+aoNjOakM1+mBt0dPKJAdb8oZSi7HEZFcbOkcmyCIci0h2EgbtzoP2YScck6CI+4LBwYxcs0JrhaKeSywmxuKJxVP8uHxlW7ycOzlpjsMYcKShX+r4izVKs++MMFXoYijaB1/M6n2whpbCPl8kFgphiN3y+UJoGzHfTsynDfu0vlhIbKRorRRqcs4BNWSzbRujtvqCGEnRA5rfajaTOAiz0o+KfifOKVGMfbRxfQ58Znko+LSZvAMzDiYfunYzPhJtSIsFHe1xULcal8xhGjS4HtxgvgDxJ28DimbyGFAl76Fc3OT3KwHwjXep254i7TltZXDF2cGNW6OhJJ6xD3jWMBPJe9xGsWZrGttjnEFAF5G3lSfIGgIueO1cGeS+MSbVJwyf1JksNsVTquQx92iMHq55lJFx5gB8Sztiu+j5TDA/5WYHSkRMqo6neg/WJoHVpsBH5zSMGoMLF4VN/yLjvJAGj8HxgkUxFq+DP8OPsfKJwxbqE+Ba3JymJaMGDLJttdXK7EWOOipdF4Q9ZN19C0f4mScO5aivoNlzxG8d4cC+4OeF9uKKXXHOzl6AV645oG15ss2/zDEH9wbGlWh46wlQ1FcOuJ5t+3HZbQ7WFlzy58v1Aaz0O6CYsU5rPKs17+w02RIWJl4ovoUD/PTbPlX3iSmYcqC42nHpNFm75pc/X86sCBBqT0BUoOKKx4qZyYx1yrnXu1Rv22Phcu6FwNs480S3ZEiM9TYV9bEcEmmQdG0GcnKGwlY5wOr10T20ZuuWAzACOyK7Sw8PWyFxOta3G6O9DW1410fV6+A9RxQFS8dJT1OhHoHsb5DcJ+oB2f1uFosViISpfiUe5tiWl8oxZ65+czsuUK1KScpBszhcsPp2ToExmH0gcdmDSlcmopVBl2N+rLOIX3TshsfHY+chH153oLqCz85eXOdyueLFrJNlZ6vFAGYpIRgofh/QEqeLxCs77U5FXeh6upFFKwvOdvkFrxSxrBXrFHFdV5WummFXVpwrK3rRT8QkNTvrdK68KSIoRp9FKosn4gGeTjJqLGG7JQRG71yd7XI9rOCoTdzQsOe7u60FyxbJtxNzhbOreDze0kSwXQJ30X3wjuk6qchy3nrqeRvl2HPFstWiFP4o5hVa+yYYAl9QdbNB2LJSE0Br3fHCAIZsfoDQ0S+KVJkjm7PGvoZ6DhaPE46eW1DyI9AM5uPIw87OTmzXAbm3UI69SCxyWXE6r+nkF8Zcm00dTyAftTq+CEVZKEx9+LnzzBajv+Bo99hBTZG3k2hfKLr7y3LhKn55dlrzIwwqgrPzsulMckDaQueCG3mm+evMtnhjWaBM63wbFepfknS2VlIjqhQFbr4lKrAM5iu+UtonldIemoJuUKG+kzeCdUlu9e1l2heJ0VeLWFrlroO1AXQx0jpaBiDoFofpG1VqUmexWHSTqen7/SQEt2uBAyPsLtbtsQFscv5totoKVZ/xsi1DIj52+ri6YdgAVO4nLSZVQyadZS/Z6KgIDlrgWZfeQKPox4rO+IiDbnMAV2pbvLEZRW2Gm9SEqk0TqXJtc4YRIGbF9W/oPVYmvYUusHiCsRboMKX6qs4EkfC3k+1ESNN7ECAobBEcoaWtyCAmXf9miUeyKXtcg6Nwslzfz0ArUFnkkKhUuj1phwOXO+I3VhXHhHJQLpC7XnVm6QpzUiMFY8ldh980LKUMVYopK7PXRVz/KhBJLdqyyKZxhUwebnTdkCCUZFDsVErfp2gRGymtssHKdHckKssNfFdAkfYsYTl239VzUCbLu7x10l8SkwWVqQcT1WQlt6qYQu1pYjegRzQhJqWgMkNrd7HzyV7hBNNxWRjgcMBAxAZ6hlgxyA4fk3RvJhN7H0w+mHwwkdEHkw4xfZlYho0JrZT7MblR5nK4q9gAv3fXs4xF3SUD7QMrChYzAuXpfkhUkzfcEFWyuADc67UAlIRRtjo8EYXJw21fM1FN3A8Vk224fwKT4bKTJ/nOcLWVkEm5S3e6mUmZG6YKheH2e3dPSNMlQW4sUKlig+lUXyapZG6omGR5U78ga7rrHDJWsjCgyGyKtkaT1P6QLXiwuN/f6xVmJ8tp+SljJSsAXI/G/cQtBK+Hy0xGaBgHSrIb6JKZpIXVtzIm/opi56Hr0hhL2Ithiq+P4rq2UFKV4OqwOY4oNgu38rln8gaq7+b9Dn6sGCEpG2YttxAYTjMRqxQ5KJZbvuuZBOWLJSjt7qO7B2F4kdC6J5m8ay3dJvcqw7cr2iTqo5Rb5vxMqTLc3bYfMB0mUQ/yBuBGVw8qFlUaoDyZLA5ncUJiNzy6kpCD9J3YxTdN7yXhOpj+Mx0ctpVOQ4w+kP6zklvNc7B/9zWVuk9D8PvqBv9nGYZoE6NJdD4jD/tf4XpVr89ykKwACBerK/ptuL+H65W3+VZDf6NYdiQ7T4PEN/e4sNGj8ht0DnSFHiIont4wbnt4sNDhv2yQA750c3dfRjdx6lsVqKhKt/tkNvPDgYUhIACV8l1q2mKy7JeE1ZU2Jnl+f0+nS6n20ryEZdA/898rht2e56ByczctpV/LDXDOdiYbUKHa1mSZFrEE84qmwo4EAEp3usaBHdNdGrNvq5UIUKpv/pgmJlU3FRCu9Yr1IDYLfHl6snnVN52+KwEEsvltkUcWmaVvb5o2k02Wr7dp5U6isAEoqdq2uib29v+8LdMxwJxTPw/JdPk2ZWrrSZpS95X3/L7FPcTOw03n0EkqrTPppmn+ZlU/n0xhnJnY69hLntCVFPYG15JwbVOWaTVa9omAaRrLWX0gSZuDk6XOl5lSaUGBpS0rXXHH1d6VyJ10+9ysXtxENt3uy+z7mO4UeEyDdv5k97gspTsxroCzKp5e0ZVlu/nTaeUdScCcI79zMXFDzkOTn1UQdwZLsugm7pUXUVhBJkyIXiFCsGCNv0JDKTIRtva6ZE5hTRVmpIvroLOUkItuX1gV44mlJP8q1eQ+p7CmSlfXoaCK5qErBVf1wr7OdNdtgEl5021soNJ1CEeHNZoujfWJUNLpSt1HifmisvbBGK77hrnl5t6kS+aIyeTkfteXTSusI9k1E5NMd+gz/DUySX8td5+HtCisI8nme50SteyrVNRuC6b/7BZhVcrLxux88muPq93buyMmgcptrxHRabhWUkBhhd4nU/b34DuuiyvlXiPnqYqyKpTe87C6chmcK/oNT7n75BLlJyWtA/vNkptuk8Lsij7f+1VirTvoS/lhwhDb+wQTzSXp9YFeQUdp5zTYDU/vCWHpuAHIdQkeRUPEyukXYBXb+8iBSQXF1X53dVBNKGkZiGmnV/BUUfzkVvu+aFJJlSzb9xgGxopi7xuiEJOSkpbG0HOOXDSUCiT7vUZJiQdTcd/jf7oylPsd6aEGpVKY9GieNGRS9Rq/r71GQUNd7HyfVEyydF84P3LjFZOM2UDSoutLpf8BQVMqmVPKKpDJQrJ8l7L0N5ZeQHTT9yVQzvAfm6e98RtTytL/BK0sjwnd17tyZbDvv/SjxbCMNIlzr5rUTTzLXpDHpIruKguBi1mF3dJPusUyTQ7sqaannwQGcUxPq/b20zxwuWunU4FzXDTIlt9Ac+GT6f09VSqFaCwTJlITB9TEhGVyejqVIhxoHxAsVp0rih1WovcpZtBeBLrzdrKSLpX37u9Qj0zwk9v7vXIpXfHQLfGF3DXy0CuVR0OMeO/y7ex8ICjU3u2b5z1JlIfnwSG+YYoQDOSuL6p0U1DF82hIemdrhq1Wq9v5rHgvb1LxGkkQCrSNoZgDlZf0tt8NMfJviPChD33oQx9SjP4fNLVzKd4ekT0AAAAASUVORK5CYII=;" vertex="1" parent="2">
                    <mxGeometry x="410" y="110" width="325" height="216.27" as="geometry"/>
                </mxCell>
                <mxCell id="10" value="Excuse: It was my brother who was playing" style="text;whiteSpace=wrap;" vertex="1" parent="2">
                    <mxGeometry x="35" y="240" width="270" height="30" as="geometry"/>
                </mxCell>
                <mxCell id="12" value="Category: gaming" style="text;whiteSpace=wrap;" vertex="1" parent="2">
                    <mxGeometry x="35" y="270" width="130" height="30" as="geometry"/>
                </mxCell>
            </root>
        </mxGraphModel>
    </diagram>
</mxfile>